HIERARCHY
ROOT Hips
{
	OFFSET 0.000000 0.000000 0.000000
	CHANNELS 6 Xposition Yposition Zposition Xrotation Yrotation Zrotation
	JOINT LeftUpLeg_virtual
	{
		OFFSET 0.000000 0.000000 0.000000
		CHANNELS 3 Xrotation Yrotation Zrotation
		JOINT LeftUpLeg
		{
			OFFSET 11.394100 -6.187798 -0.413800
			CHANNELS 3 Xrotation Yrotation Zrotation
			JOINT LeftLeg
			{
				OFFSET 0.430247 -32.302673 3.732800
				CHANNELS 3 Xrotation Yrotation Zrotation
				JOINT LeftFoot
				{
					OFFSET -0.430247 -48.264931 -6.423300
					CHANNELS 3 Xrotation Yrotation Zrotation
					JOINT LeftToeBase
					{
						OFFSET 4.230900 -16.068199 23.438400
						CHANNELS 3 Xrotation Yrotation Zrotation
						JOINT LeftToe_End
						{
							OFFSET 4.510700 0.695400 19.974600
							CHANNELS 3 Xrotation Yrotation Zrotation
							End Site
							{
								OFFSET 0 0 0
							}
						}
					}
				}
			}
		}
	}
	JOINT RightUpLeg_virtual
	{
		OFFSET 0.000000 0.000000 0.000000
		CHANNELS 3 Xrotation Yrotation Zrotation
		JOINT RightUpLeg
		{
			OFFSET -11.333700 -6.187798 -0.413800
			CHANNELS 3 Xrotation Yrotation Zrotation
			JOINT RightLeg
			{
				OFFSET -0.430392 -32.302628 3.733000
				CHANNELS 3 Xrotation Yrotation Zrotation
				JOINT RightFoot
				{
					OFFSET 0.430392 -48.264973 -6.423500
					CHANNELS 3 Xrotation Yrotation Zrotation
					JOINT RightToeBase
					{
						OFFSET -4.230900 -16.068199 23.438400
						CHANNELS 3 Xrotation Yrotation Zrotation
						JOINT RightToe_End
						{
							OFFSET -4.510700 0.695400 19.974600
							CHANNELS 3 Xrotation Yrotation Zrotation
							End Site
							{
								OFFSET 0 0 0
							}
						}
					}
				}
			}
		}
	}
	JOINT Spine_virtual
	{
		OFFSET 0.000000 0.000000 0.000000
		CHANNELS 3 Xrotation Yrotation Zrotation
		JOINT Spine
		{
			OFFSET -0.002400 12.777504 0.315300
			CHANNELS 3 Xrotation Yrotation Zrotation
			JOINT Spine1
			{
				OFFSET -0.002067 5.816869 0.032633
				CHANNELS 3 Xrotation Yrotation Zrotation
				JOINT Spine1_split
				{
					OFFSET -0.002067 5.816869 0.032633
					CHANNELS 3 Xrotation Yrotation Zrotation
					JOINT Spine2
					{
						OFFSET -0.002067 5.816869 0.032633
						CHANNELS 3 Xrotation Yrotation Zrotation
						JOINT Neck_virtual
						{
							OFFSET 0.000000 0.000000 0.000000
							CHANNELS 3 Xrotation Yrotation Zrotation
							JOINT Neck
							{
								OFFSET -0.003700 21.199493 -0.826900
								CHANNELS 3 Xrotation Yrotation Zrotation
								JOINT Head
								{
									OFFSET 0.000000 20.442200 4.834800
									CHANNELS 3 Xrotation Yrotation Zrotation
									JOINT HeadTop_End
									{
										OFFSET 0.000000 34.668396 4.968400
										CHANNELS 3 Xrotation Yrotation Zrotation
										End Site
										{
											OFFSET 0 0 0
										}
									}
								}
							}
						}
						JOINT LeftShoulder_virtual
						{
							OFFSET 0.000000 0.000000 0.000000
							CHANNELS 3 Xrotation Yrotation Zrotation
							JOINT LeftShoulder
							{
								OFFSET 3.288150 8.794197 -1.372250
								CHANNELS 3 Xrotation Yrotation Zrotation
								JOINT LeftShoulder_split
								{
									OFFSET 3.288150 8.794197 -1.372250
									CHANNELS 3 Xrotation Yrotation Zrotation
									JOINT LeftArm
									{
										OFFSET 11.953299 -2.279007 -0.146200
										CHANNELS 3 Xrotation Yrotation Zrotation
										JOINT LeftForeArm
										{
											OFFSET 18.448900 0.000000 0.000000
											CHANNELS 3 Xrotation Yrotation Zrotation
											JOINT LeftHand
											{
												OFFSET 29.527798 0.000000 0.000000
												CHANNELS 3 Xrotation Yrotation Zrotation
												End Site
												{
													OFFSET 0 0 0
												}
											}
										}
									}
								}
							}
						}
						JOINT RightShoulder_virtual
						{
							OFFSET 0.000000 0.000000 0.000000
							CHANNELS 3 Xrotation Yrotation Zrotation
							JOINT RightShoulder
							{
								OFFSET -3.249400 8.794197 -1.372250
								CHANNELS 3 Xrotation Yrotation Zrotation
								JOINT RightShoulder_split
								{
									OFFSET -3.249400 8.794197 -1.372250
									CHANNELS 3 Xrotation Yrotation Zrotation
									JOINT RightArm
									{
										OFFSET -11.953299 -2.279007 -0.146200
										CHANNELS 3 Xrotation Yrotation Zrotation
										JOINT RightForeArm
										{
											OFFSET -18.448900 0.000000 0.000000
											CHANNELS 3 Xrotation Yrotation Zrotation
											JOINT RightHand
											{
												OFFSET -29.527802 0.000000 0.000000
												CHANNELS 3 Xrotation Yrotation Zrotation
												End Site
												{
													OFFSET 0 0 0
												}
											}
										}
									}
								}
							}
						}
					}
				}
			}
		}
	}
}
MOTION
Frames: 8
Frame Time: 0.03333333
-1.159779 87.015862 0.624989 0.000000 0.000000 0.000000 6.435331 60.839282 -9.711544 -13.939497 7.933278 17.108213 46.819550 -5.140425 12.992067 -22.247497 4.336384 -21.070063 -13.121197 0.222294 -1.867296 0.000000 0.000000 0.000000 8.333961 61.005645 -11.137100 -31.781266 8.196701 -19.924242 26.616542 8.361976 -2.759314 -3.974260 9.755420 10.996903 -6.394523 -0.968894 0.897810 0.000000 0.000000 0.000000 7.986223 62.750061 -9.176305 0.535853 -3.543674 -1.211668 2.772324 -0.645759 -0.382012 1.219082 -0.225681 0.100344 0.000000 0.000000 0.000000 1.719163 -1.104007 -0.095933 -6.598552 -10.406833 -1.930301 -2.858857 -40.975486 5.672636 0.000000 0.000000 0.000000 1.653143 -1.044037 -0.286739 0.394241 -8.242511 -9.162571 -2.956303 -0.211396 -1.865951 3.126360 -46.177468 -46.329819 175.073745 -73.279809 173.829175 0.000000 0.000000 0.000000 2.358404 -0.832173 -0.307885 -0.109459 -2.315841 8.902793 -3.487533 5.986140 -0.577950 -22.893824 -6.864459 46.877535 -178.353957 66.258784 178.265779 0.000000 0.000000 0.000000 
-1.221962 89.874214 0.531967 0.000000 0.000000 0.000000 6.151370 59.020382 -9.651302 -13.508778 6.601410 17.427557 44.662563 -2.120576 11.138700 -18.772859 5.714977 -17.615686 -11.204345 0.542449 -3.518689 0.000000 0.000000 0.000000 8.595355 58.549201 -11.046711 -30.665425 6.415412 -19.542870 22.731322 9.458104 -2.532456 -1.401316 11.705391 14.754911 -9.167448 -0.135879 -0.181690 0.000000 0.000000 0.000000 7.962166 60.140191 -9.141012 0.139211 -3.634334 -0.715925 2.502788 -0.682132 -0.287698 1.439870 -0.242122 0.079976 0.000000 0.000000 0.000000 2.054289 -1.033008 -0.085842 -6.285313 -10.243777 -1.601062 -2.537096 -40.907448 5.663063 0.000000 0.000000 0.000000 1.673339 -1.059739 -0.167545 0.398801 -8.521885 -8.333163 -3.607005 -1.127711 -0.682856 -0.192077 -46.558104 -46.617414 176.455820 -72.014079 175.474527 0.000000 0.000000 0.000000 2.383370 -0.807067 -0.188616 -0.032055 -2.120324 8.668640 -3.914499 4.812112 -1.425269 -24.298620 -7.452646 46.031531 -178.941531 64.912137 178.576594 0.000000 0.000000 0.000000 
-0.947980 94.806931 -0.332424 0.000000 0.000000 0.000000 5.855448 55.840806 -9.531754 -14.786869 4.998489 17.854471 41.812922 1.103654 8.786267 -9.996373 5.699108 -14.689596 -6.315706 0.881949 -8.298767 0.000000 0.000000 0.000000 8.940228 54.282525 -10.939596 -28.662803 4.356395 -18.019528 15.937569 10.131450 -1.849009 1.721341 13.684009 17.154138 -9.252032 0.669462 -0.673765 0.000000 0.000000 0.000000 8.081925 55.656213 -9.129523 -0.213868 -3.445481 0.135566 2.265409 -0.582826 -0.271266 1.502378 -0.050244 0.158998 0.000000 0.000000 0.000000 2.439944 -0.826534 -0.140028 -5.796872 -9.669742 -1.092889 -1.926983 -39.556313 5.709995 0.000000 0.000000 0.000000 1.820725 -0.902313 -0.101945 0.426189 -8.273884 -6.977095 -3.291925 -1.687636 -0.549204 -4.926390 -46.257142 -46.692748 177.950484 -69.993040 177.079334 0.000000 0.000000 0.000000 2.415623 -0.711470 -0.192410 0.094518 -1.562950 8.224461 -3.801527 3.492993 -1.373189 -26.436244 -6.469808 43.605673 -178.840854 63.491991 178.224388 0.000000 0.000000 0.000000 
-0.359480 100.204895 -1.800491 0.000000 0.000000 0.000000 5.212636 51.083719 -9.148390 -16.915378 3.536626 18.157614 40.060972 3.280775 6.734812 2.995010 3.794719 -12.835179 -9.087923 1.193437 -10.939201 0.000000 0.000000 0.000000 8.415575 48.880430 -10.293983 -26.680841 2.083182 -15.718237 10.067504 9.536907 -1.117719 4.131645 14.044016 16.928562 -6.813001 1.155618 -0.542744 0.000000 0.000000 0.000000 7.861863 49.985640 -8.715426 -0.281264 -3.012328 1.050152 2.098171 -0.358006 -0.309543 1.366781 -0.009603 0.193442 0.000000 0.000000 0.000000 2.778225 -0.513789 -0.233693 -5.238817 -8.787178 -0.534376 -1.113053 -36.989432 5.718327 0.000000 0.000000 0.000000 2.044984 -0.619689 -0.093119 0.428745 -7.585744 -5.471011 -2.604180 -1.655412 -1.144071 -10.060363 -44.919637 -46.800166 179.170697 -68.095996 178.307307 0.000000 0.000000 0.000000 2.467935 -0.523769 -0.303822 0.229608 -0.643104 7.773091 -3.333492 2.823689 -0.805003 -28.450728 -3.987351 40.519650 -178.416808 62.588090 177.672345 0.000000 0.000000 0.000000 
0.449618 104.821152 -3.018337 0.000000 0.000000 0.000000 4.111182 45.561801 -8.195231 -18.085663 2.964131 17.527621 38.735000 4.301842 5.468650 13.902615 0.948258 -10.478781 -22.055475 1.845871 -9.480961 0.000000 0.000000 0.000000 6.706611 42.687282 -8.965229 -25.761903 -0.321742 -13.366307 8.325851 7.655252 -0.709773 5.479710 11.921284 14.454434 -4.500576 1.276707 -0.048435 0.000000 0.000000 0.000000 6.992920 44.099185 -7.711037 0.033636 -2.387927 1.755250 2.062340 -0.032838 -0.369557 1.079645 -0.035630 0.089160 0.000000 0.000000 0.000000 3.012127 -0.145291 -0.320303 -4.680043 -7.610798 -0.056663 -0.218251 -33.505865 5.610635 0.000000 0.000000 0.000000 2.317372 -0.256962 -0.143434 0.371615 -6.597054 -4.195342 -2.096713 -0.976907 -1.771094 -14.580903 -42.754727 -46.956936 179.926266 -66.910179 179.035350 0.000000 0.000000 0.000000 2.532201 -0.227979 -0.471384 0.393459 0.531537 7.600100 -2.736700 2.937500 -0.461273 -29.750415 -0.577986 37.709024 -177.954186 62.552484 177.243928 0.000000 0.000000 0.000000 
1.427263 107.803062 -3.648506 0.000000 0.000000 0.000000 2.572712 39.495719 -6.632635 -18.867655 4.176056 16.205373 38.269427 5.687251 4.433717 18.060171 -0.686198 -6.955029 -32.432105 2.557592 -8.787302 0.000000 0.000000 0.000000 4.139030 36.683747 -7.094111 -26.211848 -2.443214 -11.713222 12.149757 5.324438 -0.680070 5.931703 8.078824 10.917532 -4.000863 1.102858 0.445600 0.000000 0.000000 0.000000 5.482332 38.761849 -6.224899 0.661548 -1.667636 2.117278 2.145924 0.369864 -0.411648 0.832104 -0.140229 -0.150712 0.000000 0.000000 0.000000 3.096682 0.208213 -0.381166 -4.187134 -6.229863 0.257985 0.644894 -29.520334 5.352634 0.000000 0.000000 0.000000 2.592845 0.123909 -0.248019 0.283138 -5.587729 -3.489379 -1.997323 -0.201796 -2.338732 -17.232661 -39.968126 -47.138042 -179.792463 -66.569646 179.326808 0.000000 0.000000 0.000000 2.632032 0.139482 -0.619549 0.576231 1.798638 7.910583 -2.271459 3.300737 -0.375076 -29.957801 2.903905 35.905017 -177.740169 63.504859 177.212058 0.000000 0.000000 0.000000 
2.363280 109.238747 -4.334404 0.000000 0.000000 0.000000 1.098790 32.583793 -4.679278 -20.496479 5.915808 14.855441 38.424028 7.108441 3.650279 16.772906 -1.086882 -4.388931 -31.595263 3.364362 -10.132468 0.000000 0.000000 0.000000 1.751133 31.661198 -5.025409 -27.514183 -3.931410 -11.311528 20.037314 3.350200 -0.700806 5.815956 4.025676 7.804298 -4.242384 0.770158 0.955043 0.000000 0.000000 0.000000 3.716449 33.367318 -4.555973 1.387765 -0.937907 2.050789 2.304423 0.788742 -0.428966 0.839684 -0.232354 -0.130870 0.000000 0.000000 0.000000 3.054074 0.525649 -0.402472 -3.608362 -4.770185 0.375014 1.362801 -25.387258 4.980740 0.000000 0.000000 0.000000 2.828913 0.480845 -0.379963 0.216406 -4.573813 -3.459639 -2.226963 0.458460 -2.619623 -17.878398 -37.013939 -47.634771 -179.834851 -67.108671 179.375439 0.000000 0.000000 0.000000 2.781883 0.547138 -0.724572 0.745987 2.891900 8.743029 -2.044754 3.786945 -0.695063 -29.363441 5.649975 35.385492 -177.938326 65.237309 177.616214 0.000000 0.000000 0.000000 
3.063435 109.581360 -5.025173 0.000000 0.000000 0.000000 0.390696 25.922200 -2.719154 -23.209432 6.040612 14.007160 38.122448 6.659016 3.395875 15.044844 -1.552314 -5.555439 -20.470763 3.441183 -11.872162 0.000000 0.000000 0.000000 0.441330 27.366717 -3.114062 -28.650448 -4.687978 -12.239551 28.342932 2.269096 -0.775549 5.714274 0.912007 5.854035 -4.516490 0.478621 1.485917 0.000000 0.000000 0.000000 2.196240 27.939927 -3.062905 1.874203 -0.242441 1.628240 2.461494 1.161462 -0.444515 0.624818 -0.358100 0.335225 0.000000 0.000000 0.000000 2.979269 0.817083 -0.374264 -2.894710 -3.269397 0.319818 1.797394 -21.437447 4.549351 0.000000 0.000000 0.000000 2.948141 0.808213 -0.511627 0.185940 -3.604750 -4.083342 -2.632968 0.592452 -2.420399 -16.415467 -34.376769 -48.306738 179.792709 -68.104971 179.147160 0.000000 0.000000 0.000000 2.901661 0.954592 -0.761659 0.896779 3.687308 9.914096 -1.950165 4.130692 -1.258497 -28.459009 7.388446 36.141321 -178.410729 67.151886 178.226587 0.000000 0.000000 0.000000 
